<?xml version="1.0" encoding="UTF-8" standalone="no"?><!DOCTYPE svg PUBLIC "-//W3C//DTD SVG 1.1//EN" "http://www.w3.org/Graphics/SVG/1.1/DTD/svg11.dtd"><!-- Generated by graphviz version 2.40.1 (20161225.0304)
 --><!-- Title: G Pages: 1 --><svg xmlns="http://www.w3.org/2000/svg" xmlns:xlink="http://www.w3.org/1999/xlink" width="664pt" height="294pt" viewBox="0.00 0.00 664.40 294.00">
<g id="graph0" class="graph" transform="scale(1 1) rotate(0) translate(4 290)">
<title>G</title>
<polygon fill="#ffffff" stroke="transparent" points="-4,4 -4,-290 660.3999,-290 660.3999,4 -4,4"/>
<g id="clust1" class="cluster">
<title>cluster_0</title>
<polygon fill="none" stroke="#000000" points="8,-62 8,-139 95.9743,-139 95.9743,-62 8,-62"/>
<text text-anchor="middle" x="51.9872" y="-122.4" font-family="Times,serif" font-size="14.00" fill="#000000">FBEs</text>
</g>
<g id="clust2" class="cluster">
<title>cluster_1</title>
<polygon fill="none" stroke="#000000" points="146.5636,-62 146.5636,-193 282.7937,-193 282.7937,-62 146.5636,-62"/>
<text text-anchor="middle" x="214.6787" y="-176.4" font-family="Times,serif" font-size="14.00" fill="#000000">Attributes</text>
</g>
<g id="clust3" class="cluster">
<title>cluster_2</title>
<polygon fill="none" stroke="#000000" points="115.9743,-201 115.9743,-278 535.0775,-278 535.0775,-201 115.9743,-201"/>
<text text-anchor="middle" x="325.5259" y="-261.4" font-family="Times,serif" font-size="14.00" fill="#000000">Conditions</text>
</g>
<g id="clust4" class="cluster">
<title>cluster_3</title>
<polygon fill="none" stroke="#000000" points="555.0775,-22 555.0775,-153 648.3999,-153 648.3999,-22 555.0775,-22"/>
<text text-anchor="middle" x="601.7387" y="-136.4" font-family="Times,serif" font-size="14.00" fill="#000000">Rules</text>
</g>
<g id="clust5" class="cluster">
<title>cluster_4</title>
<polygon fill="none" stroke="#000000" points="379.5259,-8 379.5259,-139 488.9347,-139 488.9347,-8 379.5259,-8"/>
<text text-anchor="middle" x="434.2303" y="-122.4" font-family="Times,serif" font-size="14.00" fill="#000000">Actions</text>
</g>
<!-- FBE.1 -->
<g id="node1" class="node">
<title>FBE.1</title>
<ellipse fill="none" stroke="#000000" cx="51.9872" cy="-88" rx="35.9743" ry="18"/>
<text text-anchor="middle" x="51.9872" y="-83.8" font-family="Times,serif" font-size="14.00" fill="#000000">FBE.1</text>
</g>
<!-- Attribute1 -->
<g id="node2" class="node">
<title>Attribute1</title>
<ellipse fill="none" stroke="#000000" cx="214.6787" cy="-142" rx="50.9599" ry="18"/>
<text text-anchor="middle" x="214.6787" y="-137.8" font-family="Times,serif" font-size="14.00" fill="#000000">Attribute1</text>
</g>
<!-- FBE.1&#45;&gt;Attribute1 -->
<g id="edge1" class="edge">
<title>FBE.1-&gt;Attribute1</title>
<path fill="none" stroke="#000000" d="M78.7665,-100.2324C90.1106,-105.1693 103.5544,-110.7021 115.9743,-115 130.986,-120.1948 147.5524,-125.0546 162.7563,-129.1796"/>
<polygon fill="#000000" stroke="#000000" points="161.9566,-132.5886 172.5206,-131.7804 163.7583,-125.8244 161.9566,-132.5886"/>
</g>
<!-- Attribute1.N -->
<g id="node3" class="node">
<title>Attribute1.N</title>
<ellipse fill="none" stroke="#000000" cx="214.6787" cy="-88" rx="60.2303" ry="18"/>
<text text-anchor="middle" x="214.6787" y="-83.8" font-family="Times,serif" font-size="14.00" fill="#000000">Attribute1.N</text>
</g>
<!-- FBE.1&#45;&gt;Attribute1.N -->
<g id="edge2" class="edge">
<title>FBE.1-&gt;Attribute1.N</title>
<path fill="none" stroke="#000000" d="M88.0937,-88C104.675,-88 124.9334,-88 144.3404,-88"/>
<polygon fill="#000000" stroke="#000000" points="144.3874,-91.5001 154.3873,-88 144.3873,-84.5001 144.3874,-91.5001"/>
</g>
<!-- Condition/Premise.1 -->
<g id="node4" class="node">
<title>Condition/Premise.1</title>
<ellipse fill="none" stroke="#000000" cx="214.6787" cy="-227" rx="90.9092" ry="18"/>
<text text-anchor="middle" x="214.6787" y="-222.8" font-family="Times,serif" font-size="14.00" fill="#000000">Condition/Premise.1</text>
</g>
<!-- Attribute1&#45;&gt;Condition/Premise.1 -->
<g id="edge3" class="edge">
<title>Attribute1-&gt;Condition/Premise.1</title>
<path fill="none" stroke="#000000" d="M214.6787,-160.2617C214.6787,-173.0155 214.6787,-185.7692 214.6787,-198.523"/>
<polygon fill="#000000" stroke="#000000" points="211.1788,-198.7512 214.6787,-208.7513 218.1788,-198.7513 211.1788,-198.7512"/>
</g>
<!-- Condition/Premise.N -->
<g id="node5" class="node">
<title>Condition/Premise.N</title>
<ellipse fill="none" stroke="#000000" cx="434.2303" cy="-227" rx="92.6947" ry="18"/>
<text text-anchor="middle" x="434.2303" y="-222.8" font-family="Times,serif" font-size="14.00" fill="#000000">Condition/Premise.N</text>
</g>
<!-- Attribute1.N&#45;&gt;Condition/Premise.N -->
<g id="edge4" class="edge">
<title>Attribute1.N-&gt;Condition/Premise.N</title>
<path fill="none" stroke="#000000" d="M263.7557,-98.489C277.6997,-102.5492 292.5675,-107.9582 305.3831,-115 316.7458,-121.2435 372.7675,-171.2736 407.0924,-202.3185"/>
<polygon fill="#000000" stroke="#000000" points="405.1341,-205.267 414.8952,-209.3866 409.8336,-200.079 405.1341,-205.267"/>
</g>
<!-- Action.1 -->
<g id="node7" class="node">
<title>Action.1</title>
<ellipse fill="none" stroke="#000000" cx="434.2303" cy="-88" rx="44.6232" ry="18"/>
<text text-anchor="middle" x="434.2303" y="-83.8" font-family="Times,serif" font-size="14.00" fill="#000000">Action.1</text>
</g>
<!-- Attribute1.N&#45;&gt;Action.1 -->
<g id="edge10" class="edge">
<title>Attribute1.N-&gt;Action.1</title>
<path fill="none" stroke="#000000" d="M271.5042,-93.9971C305.3252,-95.0394 347.9639,-94.9995 381.1096,-93.8773"/>
<polygon fill="#000000" stroke="#000000" points="381.6572,-97.3589 391.5145,-93.475 381.3867,-90.3641 381.6572,-97.3589"/>
</g>
<!-- Condition/Premise.1&#45;&gt;Condition/Premise.N -->
<g id="edge5" class="edge">
<title>Condition/Premise.1-&gt;Condition/Premise.N</title>
<path fill="none" stroke="#000000" d="M305.5636,-227C314.0426,-227 322.6766,-227 331.255,-227"/>
<polygon fill="#000000" stroke="#000000" points="331.2873,-230.5001 341.2872,-227 331.2872,-223.5001 331.2873,-230.5001"/>
</g>
<!-- Rule.1 -->
<g id="node6" class="node">
<title>Rule.1</title>
<ellipse fill="none" stroke="#000000" cx="601.7387" cy="-102" rx="36.5366" ry="18"/>
<text text-anchor="middle" x="601.7387" y="-97.8" font-family="Times,serif" font-size="14.00" fill="#000000">Rule.1</text>
</g>
<!-- Condition/Premise.N&#45;&gt;Rule.1 -->
<g id="edge6" class="edge">
<title>Condition/Premise.N-&gt;Rule.1</title>
<path fill="none" stroke="#000000" d="M457.8749,-209.3557C488.1743,-186.7453 540.6569,-147.5812 573.1621,-123.3247"/>
<polygon fill="#000000" stroke="#000000" points="575.4464,-125.9873 581.3677,-117.2015 571.2599,-120.3771 575.4464,-125.9873"/>
</g>
<!-- Rule.1&#45;&gt;Action.1 -->
<g id="edge7" class="edge">
<title>Rule.1-&gt;Action.1</title>
<path fill="none" stroke="#000000" d="M565.6399,-98.9829C543.121,-97.1009 513.7136,-94.643 488.4287,-92.5298"/>
<polygon fill="#000000" stroke="#000000" points="488.498,-89.0235 478.2412,-91.6783 487.9149,-95.9991 488.498,-89.0235"/>
</g>
<!-- Action.1&#45;&gt;FBE.1 -->
<g id="edge11" class="edge">
<title>Action.1-&gt;FBE.1</title>
<path fill="none" stroke="#000000" d="M397.9769,-77.3341C338.4225,-61.4216 216.459,-35.6133 115.9743,-58 105.1747,-60.406 94.0436,-64.8396 84.1546,-69.5738"/>
<polygon fill="#000000" stroke="#000000" points="82.4508,-66.5132 75.1054,-74.1484 85.6089,-72.7603 82.4508,-66.5132"/>
</g>
<!-- Action.1&#45;&gt;Attribute1.N -->
<g id="edge9" class="edge">
<title>Action.1-&gt;Attribute1.N</title>
<path fill="none" stroke="#000000" d="M391.5145,-82.525C360.3706,-81.1569 317.5526,-80.8898 281.8508,-81.7238"/>
<polygon fill="#000000" stroke="#000000" points="281.4061,-78.2344 271.5042,-82.0029 281.595,-85.2318 281.4061,-78.2344"/>
</g>
<!-- Rule.N -->
<g id="node8" class="node">
<title>Rule.N</title>
<ellipse fill="none" stroke="#000000" cx="601.7387" cy="-48" rx="38.823" ry="18"/>
<text text-anchor="middle" x="601.7387" y="-43.8" font-family="Times,serif" font-size="14.00" fill="#000000">Rule.N</text>
</g>
<!-- Action.1&#45;&gt;Rule.N -->
<g id="edge8" class="edge">
<title>Action.1-&gt;Rule.N</title>
<path fill="none" stroke="#000000" d="M472.6601,-78.8232C497.9264,-72.7898 531.0677,-64.8758 557.4423,-58.5777"/>
<polygon fill="#000000" stroke="#000000" points="558.2752,-61.9773 567.1888,-56.2503 556.6493,-55.1687 558.2752,-61.9773"/>
</g>
<!-- Action.N -->
<g id="node9" class="node">
<title>Action.N</title>
<ellipse fill="none" stroke="#000000" cx="434.2303" cy="-34" rx="46.9098" ry="18"/>
<text text-anchor="middle" x="434.2303" y="-29.8" font-family="Times,serif" font-size="14.00" fill="#000000">Action.N</text>
</g>
<!-- Rule.N&#45;&gt;Action.N -->
<g id="edge12" class="edge">
<title>Rule.N-&gt;Action.N</title>
<path fill="none" stroke="#000000" d="M563.663,-44.8177C541.9259,-43.001 514.2748,-40.69 490.1155,-38.6708"/>
<polygon fill="#000000" stroke="#000000" points="490.2595,-35.1707 480.0027,-37.8256 489.6764,-42.1464 490.2595,-35.1707"/>
</g>
</g>
</svg>